# Blender v2.79 (sub 0) OBJ File: 'AmmoBox.blend'
# www.blender.org
mtllib AmmoBox.mtl
o Cube
v 1.000000 0.274352 -0.633007
v 1.000000 1.031412 -0.633007
v 1.000000 0.274352 0.633007
v 1.000000 1.031412 0.633007
v -1.000000 0.274352 -0.633007
v -1.000000 1.031412 -0.633007
v -1.000000 0.274352 0.633007
v -1.000000 1.031412 0.633007
vt 0.000093 0.187165
vt 0.187165 0.187165
vt 0.187165 0.500000
vt 0.000093 0.500000
vt 0.187165 0.687071
vt 0.681370 0.500000
vt 0.681370 0.687071
vt 0.868441 0.500000
vt 0.681369 0.187165
vt 0.868441 0.187165
vt 0.681369 0.000093
vt 0.187165 0.000093
vt 0.681370 0.999907
vt 0.187165 0.999907
vn 1.0000 0.0000 0.0000
vn 0.0000 0.0000 1.0000
vn -1.0000 0.0000 0.0000
vn 0.0000 0.0000 -1.0000
vn 0.0000 -1.0000 0.0000
vn 0.0000 1.0000 0.0000
usemtl BoxMat
s off
f 1/1/1 2/2/1 4/3/1 3/4/1
f 3/5/2 4/3/2 8/6/2 7/7/2
f 7/8/3 8/6/3 6/9/3 5/10/3
f 5/11/4 6/9/4 2/2/4 1/12/4
f 3/5/5 7/7/5 5/13/5 1/14/5
f 8/6/6 4/3/6 2/2/6 6/9/6
