# Blender v2.79 (sub 0) OBJ File: 'Health.blend'
# www.blender.org
mtllib Health.mtl
o Sphere
v -0.707107 2.024405 -0.000000
v -0.923879 1.699982 -0.000000
v -0.923879 0.934615 -0.000000
v -0.382683 0.393419 -0.000000
v -0.353553 2.241178 -0.146447
v -0.653281 2.024405 -0.270598
v -0.853553 1.699982 -0.353554
v -0.923879 1.317299 -0.382684
v -0.853553 0.934615 -0.353554
v -0.653281 0.610192 -0.270598
v -0.353553 0.393419 -0.146447
v -0.270598 2.241178 -0.270598
v -0.500000 2.024405 -0.500000
v -0.653281 1.699982 -0.653282
v -0.707107 1.317299 -0.707107
v -0.653281 0.934615 -0.653282
v -0.500000 0.610192 -0.500000
v -0.270598 0.393419 -0.270598
v -0.146446 2.241178 -0.353553
v -0.270598 2.024405 -0.653281
v -0.353553 1.699982 -0.853553
v -0.382683 1.317299 -0.923880
v -0.353553 0.934615 -0.853553
v -0.270598 0.610192 -0.653281
v -0.146446 0.393419 -0.353553
v 0.000000 2.241178 -0.382683
v 0.000000 2.024405 -0.707107
v 0.000000 1.699982 -0.923880
v 0.000000 1.317299 -1.000000
v 0.000000 0.934615 -0.923880
v 0.000000 0.610192 -0.707107
v 0.000000 0.393419 -0.382683
v 0.146447 2.241178 -0.353553
v 0.270598 2.024405 -0.653281
v 0.353553 1.699982 -0.853553
v 0.382684 1.317299 -0.923879
v 0.353553 0.934615 -0.853553
v 0.270598 0.610192 -0.653281
v 0.146447 0.393419 -0.353553
v 0.270598 2.241178 -0.270598
v 0.500000 2.024405 -0.500000
v 0.653282 1.699982 -0.653281
v 0.707107 1.317299 -0.707107
v 0.653282 0.934615 -0.653281
v 0.500000 0.610192 -0.500000
v 0.270598 0.393419 -0.270598
v 0.353553 2.241178 -0.146447
v 0.653281 2.024405 -0.270598
v 0.853553 1.699982 -0.353553
v 0.923879 1.317299 -0.382683
v 0.853553 0.934615 -0.353553
v 0.653281 0.610192 -0.270598
v 0.353553 0.393419 -0.146447
v 0.382683 2.241178 -0.000000
v 0.707107 2.024405 0.000000
v 0.923879 1.699982 0.000000
v 1.000000 1.317299 0.000000
v 0.923879 0.934615 0.000000
v 0.707107 0.610192 0.000000
v 0.382683 0.393419 -0.000000
v 0.353553 2.241178 0.146446
v 0.653281 2.024405 0.270598
v 0.853553 1.699982 0.353553
v 0.923879 1.317299 0.382683
v 0.853553 0.934615 0.353553
v 0.653281 0.610192 0.270598
v 0.353553 0.393419 0.146447
v 0.270598 2.241178 0.270598
v 0.500000 2.024405 0.500000
v 0.653281 1.699982 0.653281
v 0.707106 1.317299 0.707107
v 0.653281 0.934615 0.653281
v 0.500000 0.610192 0.500000
v 0.270598 0.393419 0.270598
v 0.146447 2.241178 0.353553
v 0.270598 2.024405 0.653281
v 0.353553 1.699982 0.853553
v 0.382683 1.317299 0.923879
v 0.353553 0.934615 0.853553
v 0.270598 0.610192 0.653281
v 0.146446 0.393419 0.353553
v -0.000000 2.241178 0.382683
v -0.000000 2.024405 0.707106
v -0.000000 1.699982 0.923879
v -0.000000 1.317299 1.000000
v -0.000000 0.934615 0.923879
v -0.000000 0.610192 0.707106
v -0.000000 0.393419 0.382683
v -0.146447 2.241178 0.353553
v -0.270598 2.024405 0.653281
v -0.353554 1.699982 0.853553
v -0.382684 1.317299 0.923879
v -0.353554 0.934615 0.853553
v -0.270598 0.610192 0.653281
v -0.146447 0.393419 0.353553
v -0.270598 2.241178 0.270598
v -0.500000 2.024405 0.499999
v -0.653282 1.699982 0.653281
v -0.707107 1.317299 0.707106
v -0.653282 0.934615 0.653281
v -0.500000 0.610192 0.499999
v -0.270598 0.393419 0.270598
v -0.353553 2.241178 0.146446
v -0.653281 2.024405 0.270597
v -0.853553 1.699982 0.353553
v -0.923879 1.317299 0.382683
v -0.853553 0.934615 0.353553
v -0.653281 0.610192 0.270597
v -0.353553 0.393419 0.146446
v 0.000000 2.317299 -0.000000
v -0.382683 2.241178 -0.000000
v -1.000000 1.317299 -0.000001
v -0.707106 0.610192 -0.000001
v 0.000000 0.317299 -0.000000
v 0.150000 1.167299 0.150000
v 0.150000 1.467299 0.150000
v -0.150000 1.167299 0.150000
v -0.150000 1.467299 0.150000
v 0.150000 1.167299 -0.150000
v 0.150000 1.467299 -0.150000
v -0.150000 1.167299 -0.150000
v -0.150000 1.467299 -0.150000
v -0.412500 1.467299 0.150000
v -0.412500 1.167299 0.150000
v -0.412500 1.167299 -0.150000
v -0.412500 1.467299 -0.150000
v 0.412500 1.167299 0.150000
v 0.412500 1.467299 0.150000
v 0.412500 1.467299 -0.150000
v 0.412500 1.167299 -0.150000
v -0.150000 0.904799 0.150000
v 0.150000 0.904799 0.150000
v -0.150000 0.904799 -0.150000
v 0.150000 0.904799 -0.150000
v 0.150000 1.729799 0.150000
v -0.150000 1.729799 0.150000
v -0.150000 1.729799 -0.150000
v 0.150000 1.729799 -0.150000
vt 0.047620 0.659307
vt 0.047620 0.605053
vt 0.101874 0.605053
vt 0.101874 0.659307
vt 0.298543 0.557285
vt 0.298543 0.503031
vt 0.346015 0.503031
vt 0.346015 0.557285
vt 0.251367 0.605053
vt 0.251367 0.659307
vt 0.197113 0.659307
vt 0.197113 0.605053
vt 0.149345 0.503031
vt 0.149345 0.557285
vt 0.101874 0.557285
vt 0.101874 0.503031
vt 0.101874 0.706778
vt 0.047620 0.706778
vt 0.047620 0.557581
vt 0.101874 0.557581
vt 0.400269 0.557285
vt 0.400269 0.503031
vt 0.149345 0.605053
vt 0.149345 0.659307
vt 0.298839 0.605053
vt 0.298839 0.659307
vt 0.447740 0.503031
vt 0.447740 0.557285
vt 0.047620 0.503031
vt 0.047620 0.557285
vt 0.149641 0.659307
vt 0.149641 0.605053
vt 0.000148 0.659307
vt 0.000148 0.605053
vt 0.000148 0.557285
vt 0.000148 0.503031
vt 0.495212 0.557285
vt 0.495212 0.503031
vt 0.549466 0.503031
vt 0.549466 0.557285
vt 0.197113 0.557581
vt 0.251367 0.557581
vt 0.596938 0.503031
vt 0.596938 0.557285
vt 0.251071 0.503031
vt 0.251071 0.557285
vt 0.196817 0.557285
vt 0.196817 0.503031
vt 0.251367 0.706778
vt 0.197113 0.706778
vt 0.758028 0.199802
vt 0.768050 0.146979
vt 0.806149 0.161816
vt 0.776676 0.206784
vt 0.781465 0.084468
vt 0.799526 0.000148
vt 0.891416 0.038202
vt 0.842465 0.109196
vt 0.286022 0.414257
vt 0.274186 0.352085
vt 0.311600 0.335470
vt 0.347288 0.389672
vt 0.262937 0.299497
vt 0.251092 0.249841
vt 0.281029 0.291154
vt 0.749804 0.250166
vt 0.305105 0.502651
vt 0.395356 0.457453
vt 0.294532 0.276551
vt 0.791233 0.220370
vt 0.889360 0.155384
vt 0.835672 0.190103
vt 0.392427 0.341580
vt 0.462512 0.388229
vt 0.339605 0.305770
vt 0.961755 0.108523
vt 0.915012 0.216005
vt 0.852122 0.227535
vt 0.416365 0.280707
vt 0.499459 0.297973
vt 0.301428 0.257916
vt 0.354156 0.267711
vt 0.799482 0.238492
vt 0.999836 0.200414
vt 0.852994 0.268413
vt 0.800168 0.258391
vt 0.999852 0.299894
vt 0.915512 0.281830
vt 0.353134 0.227006
vt 0.415597 0.215367
vt 0.300687 0.238067
vt 0.499459 0.199816
vt 0.961774 0.391798
vt 0.890777 0.342832
vt 0.336679 0.189753
vt 0.390043 0.155162
vt 0.292422 0.220003
vt 0.793187 0.277038
vt 0.838156 0.306513
vt 0.461894 0.108711
vt 0.779601 0.291594
vt 0.844582 0.389724
vt 0.809867 0.336033
vt 0.343411 0.109182
vt 0.392210 0.038671
vt 0.277879 0.206461
vt 0.307240 0.161578
vt 0.891432 0.462127
vt 0.282678 0.084454
vt 0.300874 0.000503
vt 0.259255 0.199501
vt 0.269244 0.146769
vt 0.772434 0.352481
vt 0.761479 0.299843
vt 0.799539 0.500183
vt 0.783961 0.415368
vt 0.731557 0.353352
vt 0.741579 0.300529
vt 0.700081 0.500183
vt 0.718142 0.415863
vt 0.228435 0.147604
vt 0.217022 0.084809
vt 0.239373 0.200191
vt 0.201728 0.000148
vt 0.191011 0.163994
vt 0.156412 0.110268
vt 0.221255 0.208438
vt 0.722931 0.293547
vt 0.657143 0.391135
vt 0.693458 0.338515
vt 0.109845 0.037778
vt 0.608191 0.462129
vt 0.708375 0.279962
vt 0.610247 0.344947
vt 0.663936 0.310228
vt 0.110084 0.157031
vt 0.039225 0.107779
vt 0.207663 0.223000
vt 0.162674 0.193485
vt 0.537852 0.391808
vt 0.200676 0.241670
vt 0.147766 0.231619
vt 0.647486 0.272796
vt 0.700125 0.261839
vt 0.499771 0.299917
vt 0.584595 0.284326
vt 0.085136 0.218051
vt 0.000667 0.199613
vt 0.646613 0.231918
vt 0.699439 0.241940
vt 0.499755 0.200437
vt 0.584096 0.218501
vt 0.148605 0.272603
vt 0.085452 0.284084
vt 0.201376 0.261605
vt 0.000148 0.299420
vt 0.209669 0.279760
vt 0.706420 0.223293
vt 0.608830 0.157499
vt 0.661451 0.193818
vt 0.111119 0.345072
vt 0.037955 0.392089
vt 0.165121 0.310174
vt 0.537833 0.108533
vt 0.655025 0.110607
vt 0.689741 0.164298
vt 0.158379 0.391596
vt 0.108642 0.463548
vt 0.224295 0.293348
vt 0.194835 0.338538
vt 0.720006 0.208737
vt 0.608176 0.038205
vt 0.727173 0.147851
vt 0.738129 0.200488
vt 0.700068 0.000148
vt 0.715646 0.084964
vt 0.233185 0.353264
vt 0.220069 0.416175
vt 0.243010 0.300282
vt 0.202067 0.502735
vn 0.0000 0.0000 1.0000
vn 0.0000 1.0000 0.0000
vn 0.0000 0.0000 -1.0000
vn -1.0000 0.0000 0.0000
vn 0.0000 -1.0000 0.0000
vn 1.0000 0.0000 0.0000
vn -0.4031 -0.9152 0.0000
vn -0.7189 -0.6952 -0.0000
vn -0.6641 -0.6952 -0.2751
vn -0.3724 -0.9152 -0.1543
vn -0.9273 -0.3744 0.0000
vn -0.9239 0.0000 -0.3827
vn -0.8567 -0.3744 -0.3549
vn -0.9273 0.3744 0.0000
vn -0.7189 0.6952 0.0000
vn -0.6641 0.6952 -0.2751
vn -0.8567 0.3744 -0.3549
vn -0.4031 0.9152 0.0000
vn -0.3724 0.9152 -0.1543
vn -0.2850 0.9152 -0.2850
vn -0.2850 -0.9152 -0.2850
vn -0.6557 -0.3744 -0.6557
vn -0.5083 -0.6952 -0.5083
vn -0.6557 0.3744 -0.6557
vn -0.7071 0.0000 -0.7071
vn -0.5083 0.6952 -0.5083
vn -0.3549 -0.3744 -0.8567
vn -0.2751 -0.6952 -0.6641
vn -0.3549 0.3744 -0.8567
vn -0.3827 -0.0000 -0.9239
vn -0.1543 0.9152 -0.3724
vn -0.2751 0.6952 -0.6641
vn -0.1543 -0.9152 -0.3724
vn 0.0000 -0.6952 -0.7189
vn 0.0000 -0.9152 -0.4031
vn 0.0000 -0.3744 -0.9273
vn 0.0000 0.6952 -0.7189
vn 0.0000 0.3744 -0.9273
vn 0.0000 0.9152 -0.4031
vn 0.3827 -0.0000 -0.9239
vn 0.3549 -0.3744 -0.8567
vn 0.2751 0.6952 -0.6641
vn 0.3549 0.3744 -0.8567
vn 0.1543 0.9152 -0.3724
vn 0.1543 -0.9152 -0.3724
vn 0.2751 -0.6952 -0.6641
vn 0.2850 -0.9152 -0.2850
vn 0.6557 -0.3744 -0.6557
vn 0.5083 -0.6952 -0.5083
vn 0.6557 0.3744 -0.6557
vn 0.7071 -0.0000 -0.7071
vn 0.2850 0.9152 -0.2850
vn 0.5083 0.6952 -0.5083
vn 0.8567 0.3744 -0.3549
vn 0.9239 -0.0000 -0.3827
vn 0.3724 0.9152 -0.1543
vn 0.6641 0.6952 -0.2751
vn 0.6641 -0.6952 -0.2751
vn 0.3724 -0.9152 -0.1543
vn 0.8567 -0.3744 -0.3549
vn 0.7189 -0.6952 0.0000
vn 0.4031 -0.9152 0.0000
vn 0.9273 -0.3744 0.0000
vn 0.7189 0.6952 0.0000
vn 0.9273 0.3744 0.0000
vn 0.4031 0.9152 -0.0000
vn 0.6641 0.6952 0.2751
vn 0.8567 0.3744 0.3549
vn 0.3724 0.9152 0.1543
vn 0.3724 -0.9152 0.1543
vn 0.8567 -0.3744 0.3549
vn 0.6641 -0.6952 0.2751
vn 0.9239 -0.0000 0.3827
vn 0.2850 -0.9152 0.2850
vn 0.6557 -0.3744 0.6557
vn 0.5083 -0.6952 0.5083
vn 0.6557 0.3744 0.6557
vn 0.7071 -0.0000 0.7071
vn 0.2850 0.9152 0.2850
vn 0.5083 0.6952 0.5083
vn 0.1543 0.9152 0.3724
vn 0.2751 0.6952 0.6641
vn 0.2751 -0.6952 0.6641
vn 0.1543 -0.9152 0.3724
vn 0.3827 -0.0000 0.9239
vn 0.3549 -0.3744 0.8567
vn 0.3549 0.3744 0.8567
vn -0.0000 -0.6952 0.7189
vn -0.0000 -0.9152 0.4031
vn -0.0000 -0.3744 0.9273
vn -0.0000 0.6952 0.7189
vn -0.0000 0.3744 0.9273
vn -0.0000 0.9152 0.4031
vn -0.1543 0.9152 0.3724
vn -0.1543 -0.9152 0.3724
vn -0.3549 -0.3744 0.8567
vn -0.2751 -0.6952 0.6641
vn -0.3549 0.3744 0.8567
vn -0.3827 -0.0000 0.9239
vn -0.2751 0.6952 0.6641
vn -0.6557 -0.3744 0.6557
vn -0.5083 -0.6952 0.5083
vn -0.6557 0.3744 0.6557
vn -0.7071 -0.0000 0.7071
vn -0.2850 0.9152 0.2850
vn -0.5083 0.6952 0.5083
vn -0.2850 -0.9152 0.2850
vn -0.6641 -0.6952 0.2751
vn -0.3724 -0.9152 0.1543
vn -0.9239 -0.0000 0.3827
vn -0.8567 -0.3744 0.3549
vn -0.6641 0.6952 0.2751
vn -0.8567 0.3744 0.3549
vn -0.3724 0.9152 0.1543
usemtl HealthOrbMat
s off
f 115/1/1 116/2/1 118/3/1 117/4/1
f 118/5/2 122/6/2 126/7/2 123/8/2
f 121/9/3 122/10/3 120/11/3 119/12/3
f 120/13/2 116/14/2 128/15/2 129/16/2
f 115/1/1 117/4/1 131/17/1 132/18/1
f 118/3/1 116/2/1 135/19/1 136/20/1
f 124/21/4 123/8/4 126/7/4 125/22/4
f 117/4/1 118/3/1 123/23/1 124/24/1
f 122/10/3 121/9/3 125/25/3 126/26/3
f 121/27/5 117/28/5 124/21/5 125/22/5
f 130/29/6 129/16/6 128/15/6 127/30/6
f 119/12/3 120/11/3 129/31/3 130/32/3
f 116/2/1 115/1/1 127/33/1 128/34/1
f 115/35/5 119/36/5 130/29/5 127/30/5
f 131/37/5 133/38/5 134/39/5 132/40/5
f 121/9/3 119/12/3 134/41/3 133/42/3
f 119/43/6 115/44/6 132/40/6 134/39/6
f 117/28/4 121/27/4 133/38/4 131/37/4
f 137/45/2 136/46/2 135/47/2 138/48/2
f 116/14/6 120/13/6 138/48/6 135/47/6
f 122/6/4 118/5/4 136/46/4 137/45/4
f 120/11/3 122/10/3 137/49/3 138/50/3
s 1
f 4/51/7 113/52/8 10/53/9 11/54/10
f 3/55/11 112/56/4 8/57/12 9/58/13
f 2/59/14 1/60/15 6/61/16 7/62/17
f 111/63/18 110/64/2 5/65/19
f 114/66/5 4/51/7 11/54/10
f 113/52/8 3/55/11 9/58/13 10/53/9
f 112/67/4 2/59/14 7/62/17 8/68/12
f 1/60/15 111/63/18 5/65/19 6/61/16
f 5/65/19 110/64/2 12/69/20
f 114/66/5 11/54/10 18/70/21
f 10/53/9 9/58/13 16/71/22 17/72/23
f 8/68/12 7/62/17 14/73/24 15/74/25
f 6/61/16 5/65/19 12/69/20 13/75/26
f 11/54/10 10/53/9 17/72/23 18/70/21
f 9/58/13 8/57/12 15/76/25 16/71/22
f 7/62/17 6/61/16 13/75/26 14/73/24
f 17/72/23 16/71/22 23/77/27 24/78/28
f 15/74/25 14/73/24 21/79/29 22/80/30
f 13/75/26 12/69/20 19/81/31 20/82/32
f 18/70/21 17/72/23 24/78/28 25/83/33
f 16/71/22 15/76/25 22/84/30 23/77/27
f 14/73/24 13/75/26 20/82/32 21/79/29
f 12/69/20 110/64/2 19/81/31
f 114/66/5 18/70/21 25/83/33
f 25/83/33 24/78/28 31/85/34 32/86/35
f 23/77/27 22/84/30 29/87/3 30/88/36
f 21/79/29 20/82/32 27/89/37 28/90/38
f 19/81/31 110/64/2 26/91/39
f 114/66/5 25/83/33 32/86/35
f 24/78/28 23/77/27 30/88/36 31/85/34
f 22/80/30 21/79/29 28/90/38 29/92/3
f 20/82/32 19/81/31 26/91/39 27/89/37
f 30/88/36 29/87/3 36/93/40 37/94/41
f 28/90/38 27/89/37 34/95/42 35/96/43
f 26/91/39 110/64/2 33/97/44
f 114/66/5 32/86/35 39/98/45
f 31/85/34 30/88/36 37/94/41 38/99/46
f 29/92/3 28/90/38 35/96/43 36/100/40
f 27/89/37 26/91/39 33/97/44 34/95/42
f 32/86/35 31/85/34 38/99/46 39/98/45
f 114/66/5 39/98/45 46/101/47
f 38/99/46 37/94/41 44/102/48 45/103/49
f 36/100/40 35/96/43 42/104/50 43/105/51
f 34/95/42 33/97/44 40/106/52 41/107/53
f 39/98/45 38/99/46 45/103/49 46/101/47
f 37/94/41 36/93/40 43/108/51 44/102/48
f 35/96/43 34/95/42 41/107/53 42/104/50
f 33/97/44 110/64/2 40/106/52
f 43/105/51 42/104/50 49/109/54 50/110/55
f 41/107/53 40/106/52 47/111/56 48/112/57
f 46/101/47 45/103/49 52/113/58 53/114/59
f 44/102/48 43/108/51 50/115/55 51/116/60
f 42/104/50 41/107/53 48/112/57 49/109/54
f 40/106/52 110/64/2 47/111/56
f 114/66/5 46/101/47 53/114/59
f 45/103/49 44/102/48 51/116/60 52/113/58
f 53/114/59 52/113/58 59/117/61 60/118/62
f 51/116/60 50/115/55 57/119/6 58/120/63
f 49/109/54 48/112/57 55/121/64 56/122/65
f 47/111/56 110/64/2 54/123/66
f 114/66/5 53/114/59 60/118/62
f 52/113/58 51/116/60 58/120/63 59/117/61
f 50/110/55 49/109/54 56/122/65 57/124/6
f 48/112/57 47/111/56 54/123/66 55/121/64
f 56/122/65 55/121/64 62/125/67 63/126/68
f 54/123/66 110/64/2 61/127/69
f 114/66/5 60/118/62 67/128/70
f 59/117/61 58/120/63 65/129/71 66/130/72
f 57/124/6 56/122/65 63/126/68 64/131/73
f 55/121/64 54/123/66 61/127/69 62/125/67
f 60/118/62 59/117/61 66/130/72 67/128/70
f 58/120/63 57/119/6 64/132/73 65/129/71
f 114/66/5 67/128/70 74/133/74
f 66/130/72 65/129/71 72/134/75 73/135/76
f 64/131/73 63/126/68 70/136/77 71/137/78
f 62/125/67 61/127/69 68/138/79 69/139/80
f 67/128/70 66/130/72 73/135/76 74/133/74
f 65/129/71 64/132/73 71/140/78 72/134/75
f 63/126/68 62/125/67 69/139/80 70/136/77
f 61/127/69 110/64/2 68/138/79
f 69/139/80 68/138/79 75/141/81 76/142/82
f 74/133/74 73/135/76 80/143/83 81/144/84
f 72/134/75 71/140/78 78/145/85 79/146/86
f 70/136/77 69/139/80 76/142/82 77/147/87
f 68/138/79 110/64/2 75/141/81
f 114/66/5 74/133/74 81/144/84
f 73/135/76 72/134/75 79/146/86 80/143/83
f 71/137/78 70/136/77 77/147/87 78/148/85
f 81/144/84 80/143/83 87/149/88 88/150/89
f 79/146/86 78/145/85 85/151/1 86/152/90
f 77/147/87 76/142/82 83/153/91 84/154/92
f 75/141/81 110/64/2 82/155/93
f 114/66/5 81/144/84 88/150/89
f 80/143/83 79/146/86 86/152/90 87/149/88
f 78/148/85 77/147/87 84/154/92 85/156/1
f 76/142/82 75/141/81 82/155/93 83/153/91
f 82/155/93 110/64/2 89/157/94
f 114/66/5 88/150/89 95/158/95
f 87/149/88 86/152/90 93/159/96 94/160/97
f 85/156/1 84/154/92 91/161/98 92/162/99
f 83/153/91 82/155/93 89/157/94 90/163/100
f 88/150/89 87/149/88 94/160/97 95/158/95
f 86/152/90 85/151/1 92/164/99 93/159/96
f 84/154/92 83/153/91 90/163/100 91/161/98
f 94/160/97 93/159/96 100/165/101 101/166/102
f 92/162/99 91/161/98 98/167/103 99/168/104
f 90/163/100 89/157/94 96/169/105 97/170/106
f 95/158/95 94/160/97 101/166/102 102/171/107
f 93/159/96 92/164/99 99/172/104 100/165/101
f 91/161/98 90/163/100 97/170/106 98/167/103
f 89/157/94 110/64/2 96/169/105
f 114/66/5 95/158/95 102/171/107
f 102/171/107 101/166/102 108/173/108 109/174/109
f 100/165/101 99/172/104 106/175/110 107/176/111
f 98/167/103 97/170/106 104/177/112 105/178/113
f 96/169/105 110/64/2 103/179/114
f 114/66/5 102/171/107 109/174/109
f 101/166/102 100/165/101 107/176/111 108/173/108
f 99/168/104 98/167/103 105/178/113 106/180/110
f 97/170/106 96/169/105 103/179/114 104/177/112
f 107/176/111 106/175/110 112/56/4 3/55/11
f 105/178/113 104/177/112 1/60/15 2/59/14
f 103/179/114 110/64/2 111/63/18
f 114/66/5 109/174/109 4/51/7
f 108/173/108 107/176/111 3/55/11 113/52/8
f 106/180/110 105/178/113 2/59/14 112/67/4
f 104/177/112 103/179/114 111/63/18 1/60/15
f 109/174/109 108/173/108 113/52/8 4/51/7
