# Blender v2.79 (sub 0) OBJ File: 'TempSSG.blend'
# www.blender.org
mtllib TempSSG.mtl
o Cylinder
v 0.250000 0.000000 0.219977
v 0.250000 0.250000 2.379469
v 0.250000 0.250000 0.326455
v 0.073223 0.176777 2.379469
v 0.073223 0.176777 0.326455
v 0.073223 -0.176777 2.379470
v 0.073223 -0.176777 0.326455
v 0.250000 -0.250000 2.379470
v 0.250000 -0.250000 0.326455
v 0.426777 -0.176777 2.379469
v 0.426777 -0.176777 0.326455
v 0.500000 0.000000 2.379470
v 0.500000 0.000000 0.326455
v 0.426777 0.176777 2.379469
v 0.426777 0.176777 0.326455
v 0.250000 0.215328 2.379469
v 0.097740 0.152260 2.379469
v 0.034672 0.000000 2.379469
v 0.097740 -0.152260 2.379470
v 0.250000 -0.215328 2.379470
v 0.402260 -0.152260 2.379469
v 0.465328 0.000000 2.379470
v 0.402260 0.152260 2.379469
v 0.097740 0.152260 0.367203
v 0.250000 0.000000 0.367203
v 0.250000 0.215328 0.367203
v 0.034672 0.000000 0.367203
v 0.097740 -0.152260 0.367203
v 0.250000 -0.215328 0.367203
v 0.402260 -0.152260 0.367203
v 0.465328 0.000000 0.367203
v 0.402260 0.152260 0.367203
v 0.304746 -0.438220 -0.372697
v 0.314881 0.184038 -0.309340
v 0.296237 -0.450156 0.331915
v 0.314881 0.184038 0.331915
v 0.416296 0.100520 -0.494287
v 0.396847 0.047969 0.331915
v 0.396847 -0.224478 0.331915
v 0.416296 -0.221410 -0.421630
v 0.396847 -0.224478 1.911790
v 0.296237 -0.450156 1.749544
v 0.296237 -0.645818 -1.155148
v 0.396847 -0.459346 -1.228730
v 0.396847 -0.182463 -1.337988
v 0.138112 -0.882138 -1.467898
v 0.238722 -0.836116 -1.552361
v 0.238722 -0.767780 -1.677777
v -0.250000 0.000000 0.219977
v -0.250000 0.250000 2.379469
v -0.250000 0.250000 0.326455
v -0.073223 0.176777 2.379469
v -0.073223 0.176777 0.326455
v 0.000000 0.000000 2.379469
v 0.000000 -0.000000 0.326455
v -0.073223 -0.176777 2.379470
v -0.073223 -0.176777 0.326455
v -0.250000 -0.250000 2.379470
v -0.250000 -0.250000 0.326455
v -0.426777 -0.176777 2.379469
v -0.426777 -0.176777 0.326455
v -0.500000 0.000000 2.379470
v -0.500000 0.000000 0.326455
v -0.426777 0.176777 2.379469
v -0.426777 0.176777 0.326455
v -0.250000 0.215328 2.379469
v -0.097740 0.152260 2.379469
v -0.034672 0.000000 2.379469
v -0.097740 -0.152260 2.379470
v -0.250000 -0.215328 2.379470
v -0.402260 -0.152260 2.379469
v -0.465328 0.000000 2.379470
v -0.402260 0.152260 2.379469
v -0.097740 0.152260 0.367203
v -0.250000 0.000000 0.367203
v -0.250000 0.215328 0.367203
v -0.034672 0.000000 0.367203
v -0.097740 -0.152260 0.367203
v -0.250000 -0.215328 0.367203
v -0.402260 -0.152260 0.367203
v -0.465328 0.000000 0.367203
v -0.402260 0.152260 0.367203
v -0.304746 -0.438220 -0.372697
v -0.314881 0.184038 -0.309340
v -0.296237 -0.450156 0.331915
v -0.314881 0.184038 0.331915
v 0.000000 -0.438220 -0.372697
v 0.000000 0.309340 -0.309340
v 0.000000 -0.450156 0.331915
v 0.000000 0.309340 0.331915
v -0.416296 0.100520 -0.494287
v -0.396847 0.047969 0.331915
v 0.000000 0.173270 0.331915
v 0.000000 0.236037 -0.524873
v -0.396847 -0.224478 0.331915
v 0.000000 -0.291288 0.331915
v 0.000000 -0.824539 -1.573608
v -0.416296 -0.221410 -0.421630
v -0.396847 -0.224478 1.911790
v -0.296237 -0.450156 1.749544
v 0.000000 -0.450156 1.749544
v 0.000000 -0.291288 1.911790
v 0.000000 -0.645818 -1.155148
v -0.296237 -0.645818 -1.155148
v -0.396847 -0.459346 -1.228730
v -0.396847 -0.182463 -1.337988
v 0.000000 -0.065908 -1.383980
v 0.000000 -0.882138 -1.467898
v -0.138112 -0.882138 -1.467898
v -0.238722 -0.836116 -1.552361
v -0.238722 -0.767780 -1.677777
v 0.000000 -0.739013 -1.730571
vn 0.0000 0.0000 1.0000
vn -0.7071 0.7071 0.0000
vn -1.0000 0.0000 0.0000
vn -0.0000 -0.0000 -1.0000
vn -0.6136 0.6136 -0.4971
vn -0.0000 0.8677 -0.4971
vn -0.0000 1.0000 -0.0000
vn -0.7071 -0.7071 0.0000
vn 0.0000 -1.0000 0.0000
vn -0.8677 -0.0000 -0.4971
vn -0.9239 0.3827 -0.0000
vn 0.7071 -0.7071 0.0000
vn -0.6136 -0.6136 -0.4971
vn -0.9239 -0.3827 0.0000
vn 1.0000 0.0000 0.0000
vn 0.7071 0.7071 0.0000
vn 0.0000 -0.8677 -0.4971
vn 0.6136 -0.6136 -0.4971
vn 0.8677 -0.0000 -0.4971
vn 0.6136 0.6136 -0.4971
vn 0.8177 0.5552 -0.1518
vn 0.5468 0.8331 -0.0832
vn 0.5950 0.8035 0.0169
vn 0.9465 0.3212 0.0303
vn 0.9786 -0.2036 0.0306
vn 0.9643 -0.2632 -0.0301
vn 0.7516 0.4539 -0.4785
vn 0.0000 0.9518 -0.3066
vn 0.0000 0.9902 -0.1397
vn 0.5361 -0.8441 -0.0013
vn 0.0000 -1.0000 -0.0085
vn 0.0000 -0.9927 0.1209
vn 0.5547 -0.8256 0.1034
vn 0.9584 -0.2851 0.0128
vn 0.4649 -0.8245 0.3225
vn 0.0000 -0.9097 0.4152
vn -0.0000 0.7682 -0.6402
vn 0.5745 -0.6587 0.4859
vn 0.0000 -0.6545 0.7561
vn -0.1660 0.9861 0.0000
vn 0.5510 -0.7821 0.2913
vn 0.2638 -0.9626 0.0622
vn 0.6514 -0.7087 -0.2710
vn 0.6916 0.2009 -0.6938
vn 0.0000 -0.8990 0.4379
vn 0.0000 -0.8781 -0.4785
vn -0.0000 -0.9973 0.0740
vn -0.0000 0.4552 -0.8904
vn 0.9239 0.3827 -0.0000
vn 0.9239 -0.3827 0.0000
vn -0.8177 0.5552 -0.1518
vn -0.9465 0.3212 0.0303
vn -0.5950 0.8035 0.0169
vn -0.5468 0.8331 -0.0832
vn -0.7516 0.4539 -0.4785
vn -0.9643 -0.2632 -0.0301
vn -0.9786 -0.2036 0.0306
vn -0.5361 -0.8441 -0.0013
vn -0.5547 -0.8256 0.1034
vn -0.9584 -0.2851 0.0128
vn -0.4649 -0.8245 0.3225
vn -0.5745 -0.6587 0.4859
vn 0.1660 0.9861 0.0000
vn -0.6514 -0.7087 -0.2710
vn -0.2638 -0.9626 0.0622
vn -0.5510 -0.7821 0.2913
vn -0.6916 0.2009 -0.6938
usemtl None
s off
f 17//1 16//1 2//1 4//1
f 18//1 17//1 4//1 54//1
f 19//1 18//1 54//1 6//1
f 20//1 19//1 6//1 8//1
f 21//1 20//1 8//1 10//1
f 22//1 21//1 10//1 12//1
f 23//1 22//1 12//1 14//1
f 16//1 23//1 14//1 2//1
f 25//1 26//1 24//1
f 25//1 24//1 27//1
f 25//1 27//1 28//1
f 25//1 28//1 29//1
f 25//1 29//1 30//1
f 25//1 30//1 31//1
f 25//1 31//1 32//1
f 25//1 32//1 26//1
f 38//1 36//1 90//1 93//1
f 39//1 38//1 93//1 96//1
f 67//1 52//1 50//1 66//1
f 68//1 54//1 52//1 67//1
f 69//1 56//1 54//1 68//1
f 70//1 58//1 56//1 69//1
f 71//1 60//1 58//1 70//1
f 72//1 62//1 60//1 71//1
f 73//1 64//1 62//1 72//1
f 66//1 50//1 64//1 73//1
f 75//1 74//1 76//1
f 75//1 77//1 74//1
f 75//1 78//1 77//1
f 75//1 79//1 78//1
f 75//1 80//1 79//1
f 75//1 81//1 80//1
f 75//1 82//1 81//1
f 75//1 76//1 82//1
f 92//1 93//1 90//1 86//1
f 95//1 96//1 93//1 92//1
s 1
f 21//2 22//3 31//3 30//2
f 1//4 5//5 3//6
f 2//7 3//6 5//5 4//2
f 23//8 16//9 26//9 32//8
f 1//4 55//10 5//5
f 4//2 5//5 55//10 54//11
f 16//9 17//12 24//12 26//9
f 1//4 7//13 55//10
f 54//14 55//10 7//13 6//8
f 18//15 19//16 28//16 27//15
f 1//4 9//17 7//13
f 6//8 7//13 9//17 8//9
f 20//7 21//2 30//2 29//7
f 1//4 11//18 9//17
f 8//9 9//17 11//18 10//12
f 22//3 23//8 32//8 31//3
f 1//4 13//19 11//18
f 10//12 11//18 13//19 12//15
f 17//12 18//15 27//15 24//12
f 1//4 15//20 13//19
f 12//15 13//19 15//20 14//16
f 19//16 20//7 29//7 28//16
f 1//4 3//6 15//20
f 14//16 15//20 3//6 2//7
f 37//21 34//22 36//23 38//24
f 37//21 40//25 44//26 45//27
f 94//28 88//29 34//22 37//21
f 35//30 89//31 87//32 33//33
f 90//7 36//23 34//22 88//29
f 40//25 37//21 38//24 39//34
f 33//33 40//25 39//34 35//30
f 89//31 35//30 42//35 101//36
f 94//28 37//21 45//27 107//37
f 42//35 41//38 102//39 101//36
f 39//40 96//7 102//7 41//40
f 35//30 39//34 41//38 42//35
f 44//26 43//41 46//42 47//43
f 45//27 44//26 47//43 48//44
f 33//33 87//32 103//45 43//41
f 40//25 33//33 43//41 44//26
f 97//46 112//46 48//46 47//43
f 108//47 97//46 47//43 46//42
f 107//37 45//27 48//44 112//48
f 43//41 103//45 108//47 46//42
f 71//16 80//16 81//15 72//15
f 49//4 51//6 53//20
f 50//7 52//16 53//20 51//6
f 73//12 82//12 76//9 66//9
f 49//4 53//20 55//19
f 52//16 54//49 55//19 53//20
f 66//9 76//9 74//8 67//8
f 49//4 55//19 57//18
f 54//50 56//12 57//18 55//19
f 68//3 77//3 78//2 69//2
f 49//4 57//18 59//17
f 56//12 58//9 59//17 57//18
f 70//7 79//7 80//16 71//16
f 49//4 59//17 61//13
f 58//9 60//8 61//13 59//17
f 72//15 81//15 82//12 73//12
f 49//4 61//13 63//10
f 60//8 62//3 63//10 61//13
f 67//8 74//8 77//3 68//3
f 49//4 63//10 65//5
f 62//3 64//2 65//5 63//10
f 69//2 78//2 79//7 70//7
f 49//4 65//5 51//6
f 64//2 50//7 51//6 65//5
f 91//51 92//52 86//53 84//54
f 91//51 106//55 105//56 98//57
f 94//28 91//51 84//54 88//29
f 85//58 83//59 87//32 89//31
f 90//7 88//29 84//54 86//53
f 98//57 95//60 92//52 91//51
f 83//59 85//58 95//60 98//57
f 89//31 101//36 100//61 85//58
f 94//28 107//37 106//55 91//51
f 100//61 101//36 102//39 99//62
f 95//63 99//63 102//7 96//7
f 85//58 100//61 99//62 95//60
f 105//56 110//64 109//65 104//66
f 106//55 111//67 110//64 105//56
f 83//59 104//66 103//45 87//32
f 98//57 105//56 104//66 83//59
f 97//46 110//64 111//46 112//46
f 108//47 109//65 110//64 97//46
f 107//37 112//48 111//67 106//55
f 104//66 109//65 108//47 103//45
