# Blender v2.79 (sub 0) OBJ File: 'TempRL.blend'
# www.blender.org
mtllib TempRL.mtl
o Cylinder
v 0.000000 0.000000 -1.000000
v 0.000000 0.505566 1.000000
v 0.000000 0.505566 -1.000000
v -0.357489 0.357489 1.000000
v -0.357489 0.357489 -1.000000
v -0.505566 0.000000 1.000000
v -0.505566 -0.000000 -1.000000
v -0.357489 -0.357489 1.000000
v -0.357489 -0.357489 -1.000000
v 0.000000 -0.505566 1.000000
v 0.000000 -0.505566 -1.000000
v 0.357489 -0.357489 1.000000
v 0.357489 -0.357489 -1.000000
v 0.505566 0.000000 1.000000
v 0.505566 0.000000 -1.000000
v 0.357489 0.357489 1.000000
v 0.357489 0.357489 -1.000000
v 0.000000 0.000000 1.816800
v 0.000000 0.745776 0.817495
v -0.745776 0.000000 0.817495
v 0.000000 -0.745776 0.817495
v 0.745776 0.000000 0.817495
v 0.000000 0.505566 0.333333
v 0.000000 0.505566 -0.333333
v -0.357489 0.357489 -0.333333
v -0.357489 0.357489 0.333333
v -0.505566 -0.000000 -0.333333
v -0.505566 -0.000000 0.333333
v -0.357489 -0.357489 -0.333333
v -0.357489 -0.357489 0.333333
v 0.000000 -0.505566 -0.333333
v 0.000000 -0.505566 0.333333
v 0.357489 -0.357489 -0.333333
v 0.357489 -0.357489 0.333333
v 0.505566 0.000000 -0.333333
v 0.505566 0.000000 0.333333
v 0.357489 0.357489 -0.333333
v 0.357489 0.357489 0.333333
v 0.019206 0.551934 0.333333
v 0.019206 0.551934 -0.333333
v 0.019206 -0.551934 -0.333333
v 0.019206 -0.551934 0.333333
v 0.392978 -0.392978 -0.333333
v 0.392978 -0.392978 0.333333
v 0.555754 0.000000 -0.333333
v 0.555754 0.000000 0.333333
v 0.392978 0.392978 -0.333333
v 0.392978 0.392978 0.333333
vn -0.2431 -0.5868 -0.7724
vn 0.0000 -0.6050 -0.7962
vn 0.0000 -0.0000 -1.0000
vn -0.3827 0.9239 -0.0000
vn 0.0000 1.0000 -0.0000
vn -0.7071 0.7071 -0.0000
vn -0.5868 0.2431 -0.7724
vn -0.6050 0.0000 -0.7962
vn -1.0000 -0.0000 0.0000
vn 0.5868 -0.2431 -0.7724
vn 0.6050 -0.0000 -0.7962
vn -0.7071 -0.7071 0.0000
vn 0.2431 -0.5868 -0.7724
vn 0.0000 -1.0000 0.0000
vn -0.3827 -0.9239 0.0000
vn -0.0000 0.6050 -0.7962
vn -0.2431 0.5868 -0.7724
vn 0.7071 -0.7071 0.0000
vn 0.2431 0.5868 -0.7724
vn 1.0000 0.0000 0.0000
vn -0.5868 -0.2431 -0.7724
vn 0.7071 0.7071 -0.0000
vn 0.5868 0.2431 -0.7724
vn -0.0000 0.0000 1.0000
vn -0.0000 0.8014 0.5981
vn -0.6013 0.6013 0.5263
vn -0.8014 0.0000 0.5981
vn -0.6013 -0.6013 0.5263
vn 0.0000 -0.8014 0.5981
vn 0.6013 -0.6013 0.5263
vn 0.8014 -0.0000 0.5981
vn 0.6013 0.6013 0.5263
vn -0.9239 0.3827 -0.0000
vn 0.7104 0.7038 0.0000
vn 0.3914 0.9202 0.0000
vn 0.7104 -0.7038 0.0000
vn 0.3914 -0.9202 0.0000
vn -0.9239 -0.3827 0.0000
usemtl None
s 1
f 16//1 2//2 19//2
f 1//3 5//3 3//3
f 24//4 3//5 5//6 25//6
f 12//7 14//8 22//8
f 1//3 7//3 5//3
f 25//6 5//6 7//9 27//9
f 4//10 6//11 20//11
f 1//3 9//3 7//3
f 27//9 7//9 9//12 29//12
f 2//2 4//13 19//2
f 1//3 11//3 9//3
f 29//12 9//12 11//14 31//15
f 10//16 12//17 21//16
f 1//3 13//3 11//3
f 31//15 11//14 13//18 33//18
f 8//19 10//16 21//16
f 1//3 15//3 13//3
f 33//18 13//18 15//20 35//20
f 14//8 16//21 22//8
f 1//3 17//3 15//3
f 35//20 15//20 17//22 37//22
f 6//11 8//23 20//11
f 1//3 3//3 17//3
f 37//22 17//22 3//5 24//4
f 18//24 19//25 4//26
f 18//24 4//26 20//27
f 18//24 20//27 8//28
f 18//24 8//28 21//29
f 18//24 21//29 12//30
f 18//24 12//30 22//31
f 18//24 22//31 16//32
f 18//24 16//32 19//25
f 16//22 38//22 23//4 2//5
f 38//24 36//24 46//24 48//24
f 14//20 36//20 38//22 16//22
f 24//4 23//4 39//33 40//33
f 12//18 34//18 36//20 14//20
f 33//3 35//3 45//3 43//3
f 10//14 32//15 34//18 12//18
f 37//3 24//3 40//3 47//3
f 8//12 30//12 32//15 10//14
f 30//12 29//12 31//15 32//15
f 6//9 28//9 30//12 8//12
f 28//9 27//9 29//12 30//12
f 4//6 26//6 28//9 6//9
f 26//6 25//6 27//9 28//9
f 2//5 23//4 26//6 4//6
f 23//4 24//4 25//6 26//6
f 48//34 47//34 40//35 39//35
f 46//20 45//20 47//34 48//34
f 44//36 43//36 45//20 46//20
f 42//37 41//37 43//36 44//36
f 34//24 32//24 42//24 44//24
f 35//3 37//3 47//3 45//3
f 32//15 31//15 41//38 42//38
f 23//24 38//24 48//24 39//24
f 31//3 33//3 43//3 41//3
f 36//24 34//24 44//24 46//24
