# Blender v2.79 (sub 0) OBJ File: 'TempPistol.blend'
# www.blender.org
mtllib TempPistol.mtl
o Cube
v 0.155689 -0.406792 0.119357
v 0.155689 0.197651 0.364539
v -0.155689 -0.406792 0.119357
v -0.155689 0.197651 0.364539
v 0.155689 -0.188529 -0.384763
v 0.155689 0.399161 -0.102577
v -0.155689 -0.188529 -0.384763
v -0.155689 0.399161 -0.102577
v -0.155689 -0.453431 -0.195920
v -0.155689 0.299463 0.129393
v 0.155689 -0.453431 -0.195920
v 0.155689 0.299463 0.129393
v 0.155689 0.644970 0.545987
v -0.155689 0.644970 0.545987
v -0.155689 0.645853 0.279062
v -0.155689 0.645244 0.015582
v 0.155689 0.645244 0.015582
v 0.155689 0.645853 0.279062
v 0.155689 0.794769 0.545987
v -0.155689 0.794769 0.545987
v -0.155689 0.794769 0.279062
v -0.155689 0.794769 -0.330617
v 0.155689 0.794769 -0.330617
v 0.155689 0.794769 0.279062
v 0.155689 1.010317 0.545987
v -0.155689 1.010317 0.545987
v -0.155689 1.010317 0.279062
v -0.155689 1.010317 -0.330617
v 0.155689 1.010317 -0.330617
v 0.155689 1.010317 0.279062
v 0.155689 0.644970 0.947689
v -0.155689 0.644970 0.947689
v 0.155689 0.794769 0.947689
v -0.155689 0.794769 0.947689
v 0.155689 0.980924 0.947689
v -0.155689 0.980924 0.947689
v 0.000000 0.948431 1.773008
v 0.053361 0.926329 1.773008
v 0.000000 0.949288 0.948745
v 0.000000 0.938548 1.773008
v 0.053967 0.926934 0.948745
v 0.046373 0.919340 1.773008
v 0.076321 0.872967 0.948745
v 0.065581 0.872967 1.773008
v 0.053967 0.819000 0.948745
v 0.046373 0.826595 1.773008
v 0.000000 0.796646 0.948745
v 0.000000 0.807387 1.773008
v -0.053967 0.819000 0.948745
v -0.046372 0.826595 1.773008
v -0.076321 0.872967 0.948745
v -0.065581 0.872967 1.773008
v -0.053967 0.926934 0.948745
v -0.046372 0.919340 1.773008
v 0.075464 0.872967 1.773008
v 0.053361 0.819606 1.773008
v 0.000000 0.797503 1.773008
v -0.053361 0.819606 1.773008
v -0.075464 0.872967 1.773008
v -0.053361 0.926329 1.773008
v 0.000000 0.948431 2.019260
v -0.053361 0.926329 2.019260
v -0.075464 0.872967 2.019260
v -0.053361 0.819606 2.019260
v 0.000000 0.797503 2.019260
v 0.053361 0.819606 2.019260
v 0.075464 0.872967 2.019260
v 0.053361 0.926329 2.019260
v 0.053361 0.819606 1.928640
v 0.000000 0.797503 1.928640
v 0.075464 0.872967 1.928640
v -0.053361 0.926329 1.928640
v 0.000000 1.023216 1.928640
v -0.053361 0.819606 1.928640
v -0.075464 0.872967 1.928640
v 0.053361 0.926329 1.928640
v 0.000000 0.872967 2.019260
v 0.226350 0.983548 -0.141592
v -0.226350 0.983548 -0.218364
v 0.226350 0.983548 -0.218364
v -0.226350 0.929262 -0.195878
v 0.226350 0.929262 -0.195878
v -0.226350 0.906776 -0.141592
v 0.226350 0.906776 -0.141592
v -0.226350 0.929262 -0.087306
v 0.226350 0.929262 -0.087306
v -0.226350 0.983548 -0.064820
v 0.226350 0.983548 -0.064820
v -0.226350 1.037834 -0.087306
v 0.226350 1.037834 -0.087306
v -0.226350 1.060320 -0.141592
v 0.226350 1.060320 -0.141592
v -0.226350 1.037834 -0.195878
v 0.226350 1.037834 -0.195878
v -0.226350 0.983548 -0.141592
v 0.075450 0.929262 -0.087306
v -0.075450 0.906776 -0.141592
v 0.075450 0.906776 -0.141592
v -0.075450 0.929262 -0.195878
v 0.075450 0.929262 -0.195878
v 0.075450 0.983548 -0.218364
v -0.075450 0.983548 -0.218364
v -0.075450 0.929262 -0.087306
v 0.075450 0.983548 -0.064820
v -0.075450 0.983548 -0.064820
v 0.075450 1.037834 -0.087306
v -0.075450 1.037834 -0.087306
v 0.075450 1.060320 -0.141592
v -0.075450 1.060320 -0.141592
v 0.075450 1.037834 -0.195878
v -0.075450 1.037834 -0.195878
v -0.075450 0.922130 -0.141592
v 0.075450 1.044966 -0.141592
v 0.075450 1.026977 -0.098163
v 0.075450 0.983548 -0.080174
v 0.075450 0.983548 -0.203010
v 0.075450 0.940119 -0.185021
v 0.075450 0.922130 -0.141592
v 0.075450 0.940119 -0.098163
v 0.075450 1.026977 -0.185021
v -0.075450 0.940119 -0.185021
v -0.075450 0.983548 -0.203010
v -0.075450 0.940119 -0.098163
v -0.075450 0.983548 -0.080174
v -0.075450 1.026977 -0.098163
v -0.075450 1.044966 -0.141592
v -0.075450 1.026977 -0.185021
vn 0.0000 -0.3759 0.9267
vn -1.0000 0.0000 -0.0000
vn -0.0000 0.4328 -0.9015
vn 1.0000 -0.0000 -0.0000
vn 0.0000 -0.5805 -0.8143
vn 0.0000 -0.9892 0.1463
vn 0.0000 -1.0000 0.0000
vn 0.0000 -0.9180 -0.3965
vn 0.0000 1.0000 -0.0000
vn 0.0000 0.0000 -1.0000
vn 0.0000 0.9973 0.0730
vn 0.0000 0.0000 1.0000
vn -0.8470 0.5308 0.0275
vn -0.8400 0.5252 0.1359
vn 0.0000 0.9999 0.0130
vn 0.7070 0.7070 0.0130
vn -0.7071 -0.7071 0.0000
vn 0.9999 -0.0000 0.0130
vn 0.7070 -0.7070 0.0130
vn -0.7440 0.6673 0.0345
vn -0.7177 0.6437 0.2656
vn 0.0000 -0.9999 0.0130
vn 0.7071 -0.7071 -0.0000
vn -0.7070 -0.7070 0.0130
vn -0.9999 0.0000 0.0130
vn -0.7070 0.7070 0.0130
vn 0.8470 0.5308 0.0275
vn 0.8400 0.5252 0.1359
vn 0.7440 0.6673 0.0345
vn 0.7177 0.6437 0.2656
vn 0.8441 0.5301 -0.0806
vn 0.7350 0.6593 -0.1584
vn -0.7350 0.6593 -0.1584
vn -0.8441 0.5301 -0.0806
vn -0.0000 -0.7071 -0.7071
vn 0.0000 -0.7071 0.7071
vn 0.0000 0.7071 0.7071
vn -0.0000 0.7071 -0.7071
usemtl None
s off
f 1//1 2//1 4//1 3//1
f 9//2 10//2 8//2 7//2
f 7//3 8//3 6//3 5//3
f 11//4 12//4 2//4 1//4
f 9//5 7//5 5//5 11//5
f 8//2 10//2 15//2 16//2
f 2//4 12//4 18//4 13//4
f 3//6 9//6 11//6 1//6
f 5//4 6//4 12//4 11//4
f 3//2 4//2 10//2 9//2
f 14//7 13//7 31//7 32//7
f 17//8 16//8 22//8 23//8
f 6//3 8//3 16//3 17//3
f 12//4 6//4 17//4 18//4
f 10//2 4//2 14//2 15//2
f 4//1 2//1 13//1 14//1
f 21//2 20//2 26//2 27//2
f 22//2 21//2 27//2 28//2
f 18//4 17//4 23//4 24//4
f 13//4 18//4 24//4 19//4
f 16//2 15//2 21//2 22//2
f 15//2 14//2 20//2 21//2
f 27//9 26//9 25//9 30//9
f 28//9 27//9 30//9 29//9
f 23//10 22//10 28//10 29//10
f 25//11 26//11 36//11 35//11
f 24//4 23//4 29//4 30//4
f 19//4 24//4 30//4 25//4
f 32//12 31//12 33//12 34//12
f 34//12 33//12 35//12 36//12
f 13//4 19//4 33//4 31//4
f 19//4 25//4 35//4 33//4
f 26//2 20//2 34//2 36//2
f 20//2 14//2 32//2 34//2
f 50//10 48//10 57//10 58//10
f 40//10 54//10 60//10 37//10
f 48//10 46//10 56//10 57//10
f 54//10 52//10 59//10 60//10
f 46//10 44//10 55//10 56//10
f 63//12 64//12 77//12
f 42//10 40//10 37//10 38//10
f 52//10 50//10 58//10 59//10
f 44//10 42//10 38//10 55//10
f 39//10 41//10 43//10 45//10 47//10 49//10 51//10 53//10
f 82//4 80//4 78//4
f 67//12 68//12 77//12
f 86//4 84//4 78//4
f 62//12 63//12 77//12
f 92//4 90//4 78//4
f 64//12 65//12 77//12
f 84//4 82//4 78//4
f 66//12 67//12 77//12
f 90//4 88//4 78//4
f 68//12 61//12 77//12
f 80//4 94//4 78//4
f 61//12 62//12 77//12
f 94//4 92//4 78//4
f 88//4 86//4 78//4
f 81//2 83//2 95//2
f 65//12 66//12 77//12
f 83//2 85//2 95//2
f 79//2 81//2 95//2
f 87//2 89//2 95//2
f 85//2 87//2 95//2
f 91//2 93//2 95//2
f 89//2 91//2 95//2
f 93//2 79//2 95//2
f 101//2 100//2 117//2 116//2
f 108//2 110//2 120//2 113//2
f 106//2 108//2 113//2 114//2
f 104//2 106//2 114//2 115//2
f 96//2 104//2 115//2 119//2
f 98//2 96//2 119//2 118//2
f 110//2 101//2 116//2 120//2
f 100//2 98//2 118//2 117//2
f 109//4 107//4 125//4 126//4
f 107//4 105//4 124//4 125//4
f 105//4 103//4 123//4 124//4
f 103//4 97//4 112//4 123//4
f 97//4 99//4 121//4 112//4
f 102//4 111//4 127//4 122//4
f 99//4 102//4 122//4 121//4
f 111//4 109//4 126//4 127//4
s 1
f 72//13 75//2 63//2 62//14
f 39//15 40//15 42//16 41//16
f 74//17 70//7 65//7 64//17
f 41//16 42//16 44//18 43//18
f 75//2 74//17 64//17 63//2
f 43//18 44//18 46//19 45//19
f 73//20 72//13 62//14 61//21
f 45//19 46//19 48//22 47//22
f 69//23 71//4 67//4 66//23
f 47//22 48//22 50//24 49//24
f 49//24 50//24 52//25 51//25
f 70//7 69//23 66//23 65//7
f 51//25 52//25 54//26 53//26
f 71//4 76//27 68//28 67//4
f 53//26 54//26 40//15 39//15
f 76//27 73//29 61//30 68//28
f 38//31 37//32 73//29 76//27
f 55//4 38//31 76//27 71//4
f 57//7 56//23 69//23 70//7
f 56//23 55//4 71//4 69//23
f 37//33 60//34 72//13 73//20
f 59//2 58//17 74//17 75//2
f 58//17 57//7 70//7 74//17
f 60//34 59//2 75//2 72//13
f 101//10 80//10 82//35 100//35
f 100//35 82//35 84//7 98//7
f 98//7 84//7 86//36 96//36
f 96//36 86//36 88//12 104//12
f 104//12 88//12 90//37 106//37
f 106//37 90//37 92//9 108//9
f 108//9 92//9 94//38 110//38
f 110//38 94//38 80//10 101//10
f 89//37 107//37 109//9 91//9
f 91//9 109//9 111//38 93//38
f 93//38 111//38 102//10 79//10
f 87//12 105//12 107//37 89//37
f 85//36 103//36 105//12 87//12
f 83//7 97//7 103//36 85//36
f 81//35 99//35 97//7 83//7
f 79//10 102//10 99//35 81//35
f 116//10 122//10 127//38 120//38
f 120//38 127//38 126//9 113//9
f 113//9 126//9 125//37 114//37
f 114//37 125//37 124//12 115//12
f 115//12 124//12 123//36 119//36
f 119//36 123//36 112//7 118//7
f 118//7 112//7 121//35 117//35
f 117//35 121//35 122//10 116//10
