# Blender v2.79 (sub 0) OBJ File: 'TempRevolver.blend'
# www.blender.org
mtllib TempRevolver.mtl
o Cube
v 0.163814 -0.591851 -0.391616
v 0.163814 -0.149070 -0.324898
v 0.163814 -0.591851 0.048851
v 0.163814 -0.380521 0.129507
v -0.163814 -0.591851 -0.391616
v -0.163814 -0.149070 -0.324898
v -0.163814 -0.591851 0.048851
v -0.163814 -0.380521 0.129507
v 0.163814 0.324633 -0.102808
v 0.163814 0.062385 0.251081
v -0.163814 0.062385 0.251081
v -0.163814 0.324633 -0.102808
v 0.163814 0.484340 0.030103
v 0.163814 0.096542 0.409210
v -0.163814 0.096542 0.409210
v -0.163814 0.484340 0.030103
v 0.163814 0.663212 0.247589
v 0.163814 0.262213 0.578092
v -0.163814 0.262213 0.578092
v -0.163814 0.663212 0.247589
v 0.163814 0.968340 0.672109
v 0.163814 0.331296 0.672109
v -0.163814 0.331296 0.672109
v -0.163814 0.968340 0.672109
v 0.173343 0.968340 1.410364
v 0.173343 0.331296 1.410364
v -0.173343 0.331296 1.410364
v -0.173343 0.968340 1.410364
v -0.000000 0.658679 0.836185
v -0.000000 0.658679 1.241697
v -0.000000 0.372084 0.836185
v -0.000000 0.372084 1.241697
v -0.109675 0.393900 0.836185
v -0.109675 0.393900 1.241697
v -0.202653 0.456026 0.836185
v -0.202653 0.456026 1.241697
v -0.264779 0.549004 0.836185
v -0.264779 0.549004 1.241697
v -0.286595 0.658679 0.836185
v -0.286595 0.658679 1.241697
v -0.264779 0.768354 0.836185
v -0.264779 0.768354 1.241697
v -0.202653 0.861332 0.836185
v -0.202653 0.861332 1.241697
v -0.109675 0.923458 0.836185
v -0.109675 0.923458 1.241697
v -0.000000 0.945274 0.836185
v -0.000000 0.945274 1.241697
v 0.109675 0.923458 0.836185
v 0.109675 0.923458 1.241697
v 0.202653 0.861332 0.836185
v 0.202653 0.861332 1.241697
v 0.264779 0.768354 0.836185
v 0.264779 0.768354 1.241697
v 0.286595 0.658679 0.836185
v 0.286595 0.658679 1.241697
v 0.264779 0.549004 0.836185
v 0.264779 0.549004 1.241697
v 0.202653 0.456026 0.836185
v 0.202653 0.456025 1.241697
v 0.109675 0.393900 0.836185
v 0.109675 0.393900 1.241697
v -0.000000 0.799864 1.416040
v -0.173343 0.331296 0.786644
v -0.000000 0.635258 1.416040
v -0.000000 0.635258 3.074588
v -0.062992 0.647788 1.416040
v -0.042068 0.698303 3.074588
v -0.116394 0.683470 1.416040
v -0.116394 0.683470 3.074588
v -0.152076 0.736872 1.416040
v -0.101561 0.757796 3.074588
v -0.164606 0.799864 1.416040
v -0.164606 0.799864 3.074588
v -0.152076 0.862856 1.416040
v -0.101561 0.841932 3.074588
v -0.116394 0.916258 1.416040
v -0.116394 0.916258 3.074588
v -0.062992 0.951941 1.416040
v -0.042068 0.901426 3.074588
v -0.000000 0.964471 1.416040
v -0.000000 1.021304 3.074588
v 0.062992 0.951941 1.416040
v 0.042068 0.901426 3.074588
v 0.116394 0.916259 1.416040
v 0.116394 0.916258 3.074588
v 0.152076 0.862856 1.416040
v 0.101561 0.841932 3.074588
v 0.164606 0.799864 1.416040
v 0.164606 0.799864 3.074588
v 0.152076 0.736872 1.416040
v 0.101561 0.757796 3.074588
v 0.116394 0.683470 1.416040
v 0.116394 0.683470 3.074588
v 0.062992 0.647788 1.416040
v 0.042068 0.698303 3.074588
v 0.000000 -0.706223 0.085186
v 0.000000 -0.439001 0.196962
v 0.000000 -0.697286 -0.485179
v 0.000000 -0.144279 -0.419652
v 0.000000 0.040333 0.318135
v 0.000000 0.403731 -0.163273
v 0.000000 0.082706 0.432978
v 0.000000 0.519305 -0.052075
v 0.000000 0.262213 0.578092
v 0.000000 0.695731 0.247589
v 0.000000 0.331296 0.672109
v 0.000000 0.968340 0.672109
v 0.000000 0.331296 1.410364
v 0.000000 0.968340 1.410364
v -0.062992 0.647788 3.074588
v -0.000000 0.689935 3.074588
v -0.077732 0.722133 3.074588
v -0.152076 0.736872 3.074588
v -0.109929 0.799864 3.074588
v -0.152076 0.862856 3.074588
v -0.077732 0.877596 3.074588
v -0.062992 0.951941 3.074588
v -0.000000 0.909793 3.074588
v 0.062992 0.951941 3.074588
v 0.077732 0.877596 3.074588
v 0.152076 0.862856 3.074588
v 0.109929 0.799864 3.074588
v 0.152076 0.736872 3.074588
v 0.077732 0.722133 3.074588
v 0.062992 0.647788 3.074588
v -0.000000 0.689935 1.496249
v -0.000000 0.799864 1.496249
v -0.077732 0.722133 1.496249
v -0.109929 0.799864 1.496249
v -0.077732 0.877596 1.496249
v -0.000000 0.909793 1.496249
v 0.077732 0.877596 1.496249
v 0.109929 0.799864 1.496249
v 0.077732 0.722133 1.496249
v -0.042068 0.698303 1.496249
v -0.101561 0.757796 1.496249
v -0.101561 0.841932 1.496249
v -0.042068 0.901426 1.496249
v 0.042068 0.901426 1.496249
v 0.101561 0.841932 1.496249
v 0.101561 0.757796 1.496249
v 0.042068 0.698303 1.496249
v -0.173343 0.968340 0.786644
v 0.173343 0.968340 0.786644
v 0.173343 0.331296 0.786644
v 0.000000 0.331296 0.786644
v 0.000000 0.968340 0.786644
v -0.173343 1.025174 0.672109
v 0.173343 0.331296 0.672109
v -0.173343 0.331296 0.672109
v 0.173343 1.025174 0.672109
v 0.000000 0.331296 0.672109
v 0.000000 0.968340 0.672109
v -0.000000 0.635258 2.908906
v -0.062992 0.647788 2.908906
v -0.116394 0.683470 2.908906
v -0.152076 0.736872 2.908906
v -0.164606 0.799864 2.908906
v -0.152076 0.862856 2.908906
v -0.116394 0.916258 2.908906
v -0.062992 0.951941 2.908906
v -0.000000 0.964471 2.908906
v 0.062992 0.951941 2.908906
v 0.116394 0.916258 2.908906
v 0.152076 0.862856 2.908906
v 0.164606 0.799864 2.908906
v 0.152076 0.736872 2.908906
v 0.116394 0.683470 2.908906
v 0.062992 0.647788 2.908906
vn -1.0000 0.0000 0.0000
vn 0.0000 0.0000 1.0000
vn 1.0000 0.0000 0.0000
vn 0.0000 1.0000 0.0000
vn 0.0000 -1.0000 0.0000
vn 0.0000 0.0000 -1.0000
vn -0.1571 0.9585 0.2378
vn 0.1571 0.9585 0.2378
vn 0.8316 -0.3335 -0.4442
vn 0.8382 0.1591 -0.5217
vn 0.8377 -0.1677 0.5197
vn 0.8133 -0.4560 0.3614
vn -0.0000 -0.8577 0.5141
vn -0.0000 -0.3212 0.9470
vn -0.8377 -0.1677 0.5197
vn -0.8133 -0.4560 0.3614
vn -0.8382 0.1591 -0.5217
vn -0.8316 -0.3335 -0.4442
vn -0.0000 -0.6787 -0.7344
vn -0.0000 0.2698 -0.9629
vn 0.8432 0.2880 -0.4540
vn 0.9135 -0.2719 0.3025
vn 0.0000 -0.7494 0.6621
vn 0.7000 -0.6125 0.3672
vn -0.0000 -0.8435 0.5372
vn -0.8432 0.2880 -0.4540
vn -0.0000 0.5620 -0.8272
vn -0.9135 -0.2719 0.3025
vn 0.0000 0.7405 -0.6720
vn -0.8179 0.4383 -0.3727
vn -0.7696 0.5271 -0.3605
vn 0.0000 0.8256 -0.5643
vn -0.7000 -0.6125 0.3672
vn 0.8179 0.4383 -0.3727
vn 0.0411 -0.7425 0.6685
vn 0.0000 -0.7432 0.6691
vn 0.7696 0.5271 -0.3605
vn -0.0818 0.8240 -0.5607
vn 0.0000 0.8267 -0.5626
vn 0.0000 -0.8058 0.5921
vn -0.3827 -0.9239 0.0000
vn -0.7071 -0.7071 0.0000
vn -0.9239 -0.3827 0.0000
vn -0.9239 0.3827 0.0000
vn -0.7071 0.7071 0.0000
vn -0.3827 0.9239 0.0000
vn 0.3827 0.9239 0.0000
vn 0.7071 0.7071 0.0000
vn 0.9239 0.3827 0.0000
vn 0.9239 -0.3827 -0.0000
vn 0.7071 -0.7071 -0.0000
vn 0.3827 -0.9239 -0.0000
vn -0.5489 0.8328 -0.0714
vn -0.4689 0.8825 -0.0362
vn -0.0000 0.9856 -0.1690
vn -0.0000 0.9968 -0.0800
vn 0.5489 0.8328 -0.0714
vn 0.4689 0.8825 -0.0362
vn -0.0411 -0.7425 0.6685
vn 0.0818 0.8240 -0.5607
usemtl None
s off
f 144//1 64//1 27//1 28//1
f 109//2 26//2 25//2 110//2
f 146//3 145//3 25//3 26//3
f 148//4 144//4 28//4 110//4
f 147//5 146//5 26//5 109//5
f 30//2 36//2 34//2 32//2
f 37//6 39//6 29//6 35//6
f 30//2 40//2 38//2 36//2
f 41//6 43//6 29//6 39//6
f 30//2 44//2 42//2 40//2
f 45//6 47//6 29//6 43//6
f 30//2 48//2 46//2 44//2
f 49//6 51//6 29//6 47//6
f 30//2 52//2 50//2 48//2
f 53//6 55//6 29//6 51//6
f 30//2 56//2 54//2 52//2
f 57//6 59//6 29//6 55//6
f 30//2 60//2 58//2 56//2
f 61//6 31//6 29//6 59//6
f 30//2 32//2 62//2 60//2
f 67//6 69//6 63//6 65//6
f 71//6 73//6 63//6 69//6
f 75//6 77//6 63//6 73//6
f 79//6 81//6 63//6 77//6
f 83//6 85//6 63//6 81//6
f 87//6 89//6 63//6 85//6
f 91//6 93//6 63//6 89//6
f 95//6 65//6 63//6 93//6
f 64//5 147//5 109//5 27//5
f 145//4 148//4 110//4 25//4
f 27//2 109//2 110//2 28//2
f 33//6 35//6 29//6 31//6
f 112//2 68//2 111//2 66//2
f 68//2 113//2 70//2 111//2
f 113//2 72//2 114//2 70//2
f 72//2 115//2 74//2 114//2
f 115//2 76//2 116//2 74//2
f 76//2 117//2 78//2 116//2
f 117//2 80//2 118//2 78//2
f 80//2 119//2 82//2 118//2
f 119//2 84//2 120//2 82//2
f 84//2 121//2 86//2 120//2
f 121//2 88//2 122//2 86//2
f 88//2 123//2 90//2 122//2
f 123//2 92//2 124//2 90//2
f 92//2 125//2 94//2 124//2
f 125//2 96//2 126//2 94//2
f 96//2 112//2 66//2 126//2
f 128//2 129//2 136//2 127//2
f 128//2 130//2 137//2 129//2
f 128//2 131//2 138//2 130//2
f 128//2 132//2 139//2 131//2
f 128//2 133//2 140//2 132//2
f 128//2 134//2 141//2 133//2
f 128//2 135//2 142//2 134//2
f 128//2 127//2 143//2 135//2
f 152//7 154//7 148//7 145//7
f 151//5 153//5 147//5 64//5
f 153//5 150//5 146//5 147//5
f 154//8 149//8 144//8 148//8
f 150//3 152//3 145//3 146//3
f 149//1 151//1 64//1 144//1
f 24//6 23//6 151//6 149//6
f 22//6 21//6 152//6 150//6
f 108//6 24//6 149//6 154//6
f 107//2 22//2 150//2 153//2
f 23//2 107//2 153//2 151//2
f 21//6 108//6 154//6 152//6
s 1
f 1//9 2//10 4//11 3//12
f 97//13 98//14 8//15 7//16
f 7//16 8//15 6//17 5//18
f 99//19 100//20 2//10 1//9
f 97//13 7//16 5//18 99//19
f 4//11 2//10 9//21 10//22
f 101//23 10//22 14//24 103//25
f 100//20 6//17 12//26 102//27
f 98//14 4//11 10//22 101//23
f 6//17 8//15 11//28 12//26
f 104//29 16//30 20//31 106//32
f 12//26 11//28 15//33 16//30
f 10//22 9//21 13//34 14//24
f 102//27 12//26 16//30 104//29
f 20//31 19//1 23//1 24//1
f 103//25 14//24 18//35 105//36
f 16//30 15//33 19//1 20//31
f 14//24 13//34 17//37 18//3
f 18//3 17//37 21//3 22//3
f 106//32 20//31 24//38 108//39
f 105//36 18//35 22//40 107//40
f 31//5 32//5 34//41 33//41
f 33//41 34//41 36//42 35//42
f 35//42 36//42 38//43 37//43
f 37//43 38//43 40//1 39//1
f 39//1 40//1 42//44 41//44
f 41//44 42//44 44//45 43//45
f 43//45 44//45 46//46 45//46
f 45//46 46//46 48//4 47//4
f 47//4 48//4 50//47 49//47
f 49//47 50//47 52//48 51//48
f 51//48 52//48 54//49 53//49
f 53//49 54//49 56//3 55//3
f 55//3 56//3 58//50 57//50
f 57//50 58//50 60//51 59//51
f 59//51 60//51 62//52 61//52
f 61//52 62//52 32//5 31//5
f 72//49 113//48 129//48 137//49
f 155//5 66//5 111//41 156//41
f 156//41 111//41 70//42 157//42
f 121//42 84//41 140//41 133//42
f 157//42 70//42 114//43 158//43
f 158//43 114//43 74//1 159//1
f 113//48 68//47 136//47 129//48
f 159//1 74//1 116//44 160//44
f 160//44 116//44 78//45 161//45
f 84//41 119//5 132//5 140//41
f 161//45 78//45 118//53 162//54
f 162//54 118//53 82//55 163//56
f 112//4 96//46 143//46 127//4
f 163//56 82//55 120//57 164//58
f 164//58 120//57 86//48 165//48
f 68//47 112//4 127//4 136//47
f 165//48 86//48 122//49 166//49
f 166//49 122//49 90//3 167//3
f 119//5 80//52 139//52 132//5
f 167//3 90//3 124//50 168//50
f 168//50 124//50 94//51 169//51
f 96//46 125//45 135//45 143//46
f 169//51 94//51 126//52 170//52
f 170//52 126//52 66//5 155//5
f 19//59 105//36 107//40 23//40
f 17//37 106//32 108//39 21//60
f 15//33 103//25 105//36 19//59
f 9//21 102//27 104//29 13//34
f 13//34 104//29 106//32 17//37
f 8//15 98//14 101//23 11//28
f 2//10 100//20 102//27 9//21
f 11//28 101//23 103//25 15//33
f 3//12 97//13 99//19 1//9
f 5//18 6//17 100//20 99//19
f 3//12 4//11 98//14 97//13
f 88//43 121//42 133//42 141//43
f 115//3 72//49 137//49 130//3
f 123//1 88//43 141//43 134//1
f 76//50 115//3 130//3 138//50
f 92//44 123//1 134//1 142//44
f 117//51 76//50 138//50 131//51
f 125//45 92//44 142//44 135//45
f 80//52 117//51 131//51 139//52
f 95//52 170//52 155//5 65//5
f 93//51 169//51 170//52 95//52
f 91//50 168//50 169//51 93//51
f 89//3 167//3 168//50 91//50
f 87//49 166//49 167//3 89//3
f 85//48 165//48 166//49 87//49
f 83//47 164//58 165//48 85//48
f 81//4 163//56 164//58 83//47
f 79//46 162//54 163//56 81//4
f 77//45 161//45 162//54 79//46
f 75//44 160//44 161//45 77//45
f 73//1 159//1 160//44 75//44
f 71//43 158//43 159//1 73//1
f 69//42 157//42 158//43 71//43
f 67//41 156//41 157//42 69//42
f 65//5 155//5 156//41 67//41
