# Blender v2.79 (sub 0) OBJ File: 'Explosion.blend'
# www.blender.org
mtllib Explosion.mtl
o Sphere
v 0.000000 0.707107 0.707107
v 0.000000 0.382683 0.923880
v 0.000000 -0.382684 0.923880
v 0.000000 -0.923880 0.382683
v -0.146447 0.923880 0.353553
v -0.270598 0.707107 0.653281
v -0.353553 0.382683 0.853553
v -0.382683 -0.000000 0.923880
v -0.353553 -0.382684 0.853553
v -0.270598 -0.707107 0.653281
v -0.146447 -0.923880 0.353553
v -0.270598 0.923880 0.270598
v -0.500000 0.707107 0.500000
v -0.653281 0.382683 0.653281
v -0.707107 -0.000000 0.707107
v -0.653281 -0.382684 0.653281
v -0.500000 -0.707107 0.500000
v -0.270598 -0.923880 0.270598
v -0.353553 0.923880 0.146447
v -0.653281 0.707107 0.270598
v -0.853553 0.382683 0.353553
v -0.923879 -0.000000 0.382683
v -0.853553 -0.382684 0.353553
v -0.653281 -0.707107 0.270598
v -0.353553 -0.923880 0.146447
v -0.382683 0.923880 0.000000
v -0.707107 0.707107 0.000000
v -0.923879 0.382683 0.000000
v -1.000000 -0.000000 0.000000
v -0.923879 -0.382684 0.000000
v -0.707107 -0.707107 0.000000
v -0.382683 -0.923880 0.000000
v -0.353553 0.923880 -0.146446
v -0.653281 0.707107 -0.270598
v -0.853553 0.382683 -0.353553
v -0.923879 -0.000000 -0.382683
v -0.853553 -0.382684 -0.353553
v -0.653281 -0.707107 -0.270598
v -0.353553 -0.923880 -0.146446
v -0.270598 0.923880 -0.270598
v -0.500000 0.707107 -0.500000
v -0.653281 0.382683 -0.653281
v -0.707106 -0.000000 -0.707107
v -0.653281 -0.382684 -0.653281
v -0.500000 -0.707107 -0.500000
v -0.270598 -0.923880 -0.270598
v -0.146446 0.923880 -0.353553
v -0.270598 0.707107 -0.653281
v -0.353553 0.382683 -0.853553
v -0.382683 -0.000000 -0.923879
v -0.353553 -0.382684 -0.853553
v -0.270598 -0.707107 -0.653281
v -0.146446 -0.923880 -0.353553
v 0.000000 0.923880 -0.382683
v 0.000000 0.707107 -0.707106
v 0.000000 0.382683 -0.923879
v 0.000000 -0.000000 -1.000000
v 0.000000 -0.382684 -0.923879
v 0.000000 -0.707107 -0.707106
v 0.000000 -0.923880 -0.382683
v 0.146447 0.923880 -0.353553
v 0.270598 0.707107 -0.653281
v 0.353554 0.382683 -0.853553
v 0.382684 -0.000000 -0.923879
v 0.353554 -0.382684 -0.853553
v 0.270598 -0.707107 -0.653281
v 0.146447 -0.923880 -0.353553
v 0.270598 0.923880 -0.270598
v 0.500000 0.707107 -0.499999
v 0.653282 0.382683 -0.653281
v 0.707107 -0.000000 -0.707106
v 0.653282 -0.382684 -0.653281
v 0.500000 -0.707107 -0.499999
v 0.270598 -0.923880 -0.270598
v 0.353553 0.923880 -0.146446
v 0.653281 0.707107 -0.270597
v 0.853553 0.382683 -0.353553
v 0.923879 -0.000000 -0.382683
v 0.853553 -0.382684 -0.353553
v 0.653281 -0.707107 -0.270597
v 0.353553 -0.923880 -0.146446
v 0.382683 0.923880 0.000000
v 0.707106 0.707107 0.000000
v 0.923879 0.382683 0.000001
v 1.000000 -0.000000 0.000001
v 0.923879 -0.382684 0.000001
v 0.707106 -0.707107 0.000000
v 0.382683 -0.923880 0.000000
v 0.353553 0.923880 0.146447
v 0.653281 0.707107 0.270598
v 0.853553 0.382683 0.353554
v 0.923879 -0.000000 0.382684
v 0.853553 -0.382684 0.353554
v 0.653281 -0.707107 0.270598
v 0.353553 -0.923880 0.146447
v 0.270598 0.923880 0.270598
v 0.499999 0.707107 0.500000
v 0.653281 0.382683 0.653282
v 0.707106 -0.000000 0.707107
v 0.653281 -0.382684 0.653282
v 0.499999 -0.707107 0.500000
v 0.270598 -0.923880 0.270598
v 0.146446 0.923880 0.353553
v 0.270598 0.707107 0.653281
v 0.353553 0.382683 0.853553
v 0.382683 -0.000000 0.923880
v 0.353553 -0.382684 0.853553
v 0.270598 -0.707107 0.653281
v 0.146446 -0.923880 0.353553
v 0.000000 1.000000 0.000000
v -0.000000 0.923880 0.382683
v -0.000001 -0.000000 1.000000
v -0.000000 -0.707107 0.707106
v 0.000000 -1.000000 0.000000
v 2.000000 0.000000 -2.000000
v -2.000000 0.000000 -2.000000
v 2.000000 0.000000 2.000000
v -2.000000 0.000000 2.000000
v 2.000000 0.000000 2.000000
v -2.000000 0.000000 2.000000
v 2.000000 -0.000000 -2.000000
v -2.000000 -0.000000 -2.000000
vt 0.000141 0.000141
vt 0.591080 0.000141
vt 0.591080 0.591080
vt 0.000141 0.591080
vt 0.000141 0.000141
vt 0.591080 0.000141
vt 0.591080 0.591080
vt 0.000141 0.591080
vt 0.572629 0.999859
vt 0.587385 0.930974
vt 0.641151 0.930570
vt 0.653877 0.999859
vt 0.598349 0.879907
vt 0.606530 0.836742
vt 0.622790 0.836202
vt 0.631730 0.879196
vt 0.211131 0.754479
vt 0.219312 0.711314
vt 0.250449 0.723437
vt 0.226369 0.760159
vt 0.230276 0.660247
vt 0.245032 0.591362
vt 0.320102 0.622449
vt 0.280112 0.680447
vt 0.238248 0.771275
vt 0.204415 0.795611
vt 0.613246 0.795611
vt 0.654378 0.802326
vt 0.648698 0.817565
vt 0.637582 0.829444
vt 0.274557 0.746537
vt 0.377564 0.679895
vt 0.318420 0.718178
vt 0.662320 0.865752
vt 0.690676 0.909617
vt 0.728949 0.968767
vt 0.245008 0.786067
vt 0.245547 0.802326
vt 0.647079 0.771275
vt 0.653838 0.786067
vt 0.339380 0.767702
vt 0.288003 0.777127
vt 0.728413 0.871313
vt 0.786413 0.911315
vt 0.685421 0.841645
vt 0.408676 0.754965
vt 0.339787 0.821474
vt 0.288715 0.810508
vt 0.748618 0.821474
vt 0.817520 0.836233
vt 0.697546 0.810508
vt 0.408690 0.836233
vt 0.276591 0.841645
vt 0.239868 0.817565
vt 0.377583 0.911315
vt 0.319582 0.871313
vt 0.696833 0.777127
vt 0.748211 0.767702
vt 0.228751 0.829444
vt 0.619961 0.754479
vt 0.635199 0.760159
vt 0.817506 0.754965
vt 0.320118 0.968768
vt 0.281846 0.909617
vt 0.683387 0.746537
vt 0.727250 0.718177
vt 0.253489 0.865752
vt 0.786394 0.679895
vt 0.588909 0.761778
vt 0.603701 0.755019
vt 0.232321 0.930570
vt 0.222899 0.879196
vt 0.688943 0.680446
vt 0.728933 0.622449
vt 0.659279 0.723437
vt 0.213960 0.836202
vt 0.245047 0.999859
vt 0.197700 0.836742
vt 0.639106 0.660247
vt 0.653863 0.591362
vt 0.628142 0.711314
vt 0.189518 0.879908
vt 0.163798 0.999859
vt 0.178554 0.930974
vt 0.158382 0.867784
vt 0.182461 0.831062
vt 0.088728 0.968772
vt 0.128718 0.910775
vt 0.594761 0.712026
vt 0.585340 0.660651
vt 0.170582 0.819946
vt 0.572113 0.788895
vt 0.577793 0.773657
vt 0.572614 0.591362
vt 0.564171 0.725469
vt 0.535815 0.681604
vt 0.090410 0.873044
vt 0.134273 0.844684
vt 0.497542 0.622454
vt 0.031266 0.911326
vt 0.579412 0.819946
vt 0.572653 0.805155
vt 0.069450 0.823519
vt 0.120828 0.814094
vt 0.498078 0.719908
vt 0.440078 0.679906
vt 0.541070 0.749576
vt 0.163823 0.805155
vt 0.000154 0.836256
vt 0.163283 0.788895
vt 0.528946 0.780713
vt 0.120115 0.780713
vt 0.000141 0.754988
vt 0.069043 0.769747
vt 0.477874 0.769747
vt 0.408971 0.754988
vt 0.132240 0.749576
vt 0.168963 0.773657
vt 0.031248 0.679906
vt 0.089248 0.719908
vt 0.529658 0.814094
vt 0.478280 0.823519
vt 0.180079 0.761778
vt 0.591292 0.831062
vt 0.408985 0.836256
vt 0.126985 0.681604
vt 0.155341 0.725469
vt 0.499241 0.873044
vt 0.440097 0.911326
vt 0.543104 0.844684
vt 0.088712 0.622454
vt 0.176510 0.660651
vt 0.185931 0.712026
vt 0.537548 0.910775
vt 0.497558 0.968772
vt 0.567212 0.867784
vt 0.194870 0.755019
vt 0.163784 0.591362
vn 0.0000 1.0000 0.0000
vn 0.0000 -1.0000 0.0000
vn 0.0000 0.0000 1.0000
vn 0.0000 0.3743 0.9273
vn -0.3548 0.3743 0.8567
vn -0.3827 0.0000 0.9239
vn 0.0000 0.6952 0.7188
vn 0.0000 0.9176 0.3974
vn -0.1543 0.9151 0.3726
vn -0.2751 0.6952 0.6641
vn 0.0000 -0.9176 0.3974
vn 0.0000 -0.6952 0.7188
vn -0.2751 -0.6952 0.6641
vn -0.1543 -0.9151 0.3726
vn 0.0000 -0.3743 0.9273
vn -0.3548 -0.3743 0.8567
vn -0.2810 -0.9176 0.2810
vn -0.3974 0.9176 0.0000
vn -0.3726 0.9151 0.1543
vn -0.2810 0.9176 0.2810
vn -0.5083 -0.6952 0.5083
vn -0.7071 0.0000 0.7071
vn -0.6557 -0.3743 0.6557
vn -0.5083 0.6952 0.5083
vn -0.6557 0.3743 0.6557
vn -0.3726 -0.9151 0.1543
vn -0.3974 -0.9176 0.0000
vn -0.2810 0.9176 -0.2810
vn -0.3726 0.9151 -0.1543
vn -0.8567 -0.3743 0.3548
vn -0.6641 -0.6952 0.2751
vn -0.8567 0.3743 0.3548
vn -0.9239 0.0000 0.3827
vn -0.6641 0.6952 0.2751
vn -0.9273 -0.3743 0.0000
vn -0.7188 -0.6952 0.0000
vn -0.9273 0.3743 0.0000
vn -1.0000 0.0000 0.0000
vn -0.7188 0.6952 0.0000
vn -0.6641 -0.6952 -0.2751
vn -0.3726 -0.9151 -0.1543
vn -0.9239 0.0000 -0.3827
vn -0.8567 -0.3743 -0.3548
vn -0.6641 0.6952 -0.2751
vn -0.8567 0.3743 -0.3548
vn -0.2810 -0.9176 -0.2810
vn 0.0000 0.9176 -0.3974
vn -0.1543 0.9151 -0.3726
vn -0.7071 0.0000 -0.7071
vn -0.6557 -0.3743 -0.6557
vn -0.5083 0.6952 -0.5083
vn -0.6557 0.3743 -0.6557
vn -0.5083 -0.6952 -0.5083
vn 0.2810 0.9176 -0.2810
vn 0.1543 0.9151 -0.3726
vn -0.3548 -0.3743 -0.8567
vn -0.2751 -0.6952 -0.6641
vn -0.3548 0.3743 -0.8567
vn -0.3827 0.0000 -0.9239
vn -0.2751 0.6952 -0.6641
vn -0.1543 -0.9151 -0.3726
vn 0.0000 -0.9176 -0.3974
vn 0.0000 0.3743 -0.9273
vn 0.0000 0.0000 -1.0000
vn 0.0000 0.6952 -0.7188
vn 0.0000 -0.6952 -0.7188
vn 0.0000 -0.3743 -0.9273
vn 0.2751 -0.6952 -0.6641
vn 0.1543 -0.9151 -0.3726
vn 0.3827 0.0000 -0.9239
vn 0.3548 -0.3743 -0.8567
vn 0.2751 0.6952 -0.6641
vn 0.3548 0.3743 -0.8567
vn 0.2810 -0.9176 -0.2810
vn 0.3974 0.9176 0.0000
vn 0.3726 0.9151 -0.1543
vn 0.5083 0.6952 -0.5083
vn 0.6557 0.3743 -0.6557
vn 0.6557 -0.3743 -0.6557
vn 0.5083 -0.6952 -0.5083
vn 0.7071 0.0000 -0.7071
vn 0.2810 0.9176 0.2810
vn 0.3726 0.9151 0.1543
vn 0.8567 -0.3743 -0.3548
vn 0.6641 -0.6952 -0.2751
vn 0.8567 0.3743 -0.3548
vn 0.9239 0.0000 -0.3827
vn 0.6641 0.6952 -0.2751
vn 0.3726 -0.9151 -0.1543
vn 0.3974 -0.9176 0.0000
vn 0.7188 0.6952 0.0000
vn 0.7188 -0.6952 0.0000
vn 1.0000 0.0000 0.0000
vn 0.9273 -0.3743 0.0000
vn 0.9273 0.3743 0.0000
vn 0.6641 -0.6952 0.2751
vn 0.3726 -0.9151 0.1543
vn 0.9239 0.0000 0.3827
vn 0.8567 -0.3743 0.3548
vn 0.6641 0.6952 0.2751
vn 0.8567 0.3743 0.3548
vn 0.2810 -0.9176 0.2810
vn 0.1543 0.9151 0.3726
vn 0.6557 -0.3743 0.6557
vn 0.5083 -0.6952 0.5083
vn 0.6557 0.3743 0.6557
vn 0.7071 0.0000 0.7071
vn 0.5083 0.6952 0.5083
vn 0.3548 -0.3743 0.8567
vn 0.2751 -0.6952 0.6641
vn 0.3548 0.3743 0.8567
vn 0.3827 0.0000 0.9239
vn 0.2751 0.6952 0.6641
vn 0.1543 -0.9151 0.3726
usemtl ExplosionMat
s off
f 115/1/1 116/2/1 118/3/1 117/4/1
f 119/5/2 120/6/2 122/7/2 121/8/2
s 1
f 112/9/3 2/10/4 7/11/5 8/12/6
f 1/13/7 111/14/8 5/15/9 6/16/10
f 4/17/11 113/18/12 10/19/13 11/20/14
f 3/21/15 112/22/3 8/23/6 9/24/16
f 2/10/4 1/13/7 6/16/10 7/11/5
f 11/20/14 18/25/17 114/26/2 4/17/11
f 110/27/1 26/28/18 19/29/19 12/30/20
f 113/18/12 3/21/15 9/24/16 10/19/13
f 11/20/14 10/19/13 17/31/21 18/25/17
f 9/24/16 8/23/6 15/32/22 16/33/23
f 7/11/5 6/16/10 13/34/24 14/35/25
f 10/19/13 9/24/16 16/33/23 17/31/21
f 8/12/6 7/11/5 14/35/25 15/36/22
f 6/16/10 5/15/9 12/30/20 13/34/24
f 25/37/26 32/38/27 114/26/2 18/25/17
f 110/27/1 40/39/28 33/40/29 26/28/18
f 17/31/21 16/33/23 23/41/30 24/42/31
f 15/36/22 14/35/25 21/43/32 22/44/33
f 13/34/24 12/30/20 19/29/19 20/45/34
f 18/25/17 17/31/21 24/42/31 25/37/26
f 16/33/23 15/32/22 22/46/33 23/41/30
f 14/35/25 13/34/24 20/45/34 21/43/32
f 24/42/31 23/41/30 30/47/35 31/48/36
f 22/44/33 21/43/32 28/49/37 29/50/38
f 20/45/34 19/29/19 26/28/18 27/51/39
f 25/37/26 24/42/31 31/48/36 32/38/27
f 23/41/30 22/46/33 29/52/38 30/47/35
f 21/43/32 20/45/34 27/51/39 28/49/37
f 32/38/27 31/48/36 38/53/40 39/54/41
f 30/47/35 29/52/38 36/55/42 37/56/43
f 28/49/37 27/51/39 34/57/44 35/58/45
f 39/54/41 46/59/46 114/26/2 32/38/27
f 110/27/1 54/60/47 47/61/48 40/39/28
f 31/48/36 30/47/35 37/56/43 38/53/40
f 29/50/38 28/49/37 35/58/45 36/62/42
f 27/51/39 26/28/18 33/40/29 34/57/44
f 37/56/43 36/55/42 43/63/49 44/64/50
f 35/58/45 34/57/44 41/65/51 42/66/52
f 38/53/40 37/56/43 44/64/50 45/67/53
f 36/62/42 35/58/45 42/66/52 43/68/49
f 34/57/44 33/40/29 40/39/28 41/65/51
f 39/54/41 38/53/40 45/67/53 46/59/46
f 110/27/1 68/69/54 61/70/55 54/60/47
f 45/67/53 44/64/50 51/71/56 52/72/57
f 43/68/49 42/66/52 49/73/58 50/74/59
f 41/65/51 40/39/28 47/61/48 48/75/60
f 46/59/46 45/67/53 52/72/57 53/76/61
f 44/64/50 43/63/49 50/77/59 51/71/56
f 42/66/52 41/65/51 48/75/60 49/73/58
f 53/76/61 60/78/62 114/26/2 46/59/46
f 50/74/59 49/73/58 56/79/63 57/80/64
f 48/75/60 47/61/48 54/60/47 55/81/65
f 53/76/61 52/72/57 59/82/66 60/78/62
f 51/71/56 50/77/59 57/83/64 58/84/67
f 49/73/58 48/75/60 55/81/65 56/79/63
f 52/72/57 51/71/56 58/84/67 59/82/66
f 60/78/62 59/82/66 66/85/68 67/86/69
f 58/84/67 57/83/64 64/87/70 65/88/71
f 56/79/63 55/81/65 62/89/72 63/90/73
f 67/86/69 74/91/74 114/26/2 60/78/62
f 110/27/1 82/92/75 75/93/76 68/69/54
f 59/82/66 58/84/67 65/88/71 66/85/68
f 57/80/64 56/79/63 63/90/73 64/94/70
f 55/81/65 54/60/47 61/70/55 62/89/72
f 63/90/73 62/89/72 69/95/77 70/96/78
f 66/85/68 65/88/71 72/97/79 73/98/80
f 64/94/70 63/90/73 70/96/78 71/99/81
f 62/89/72 61/70/55 68/69/54 69/95/77
f 67/86/69 66/85/68 73/98/80 74/91/74
f 65/88/71 64/87/70 71/100/81 72/97/79
f 110/27/1 96/101/82 89/102/83 82/92/75
f 73/98/80 72/97/79 79/103/84 80/104/85
f 71/99/81 70/96/78 77/105/86 78/106/87
f 69/95/77 68/69/54 75/93/76 76/107/88
f 74/91/74 73/98/80 80/104/85 81/108/89
f 72/97/79 71/100/81 78/109/87 79/103/84
f 70/96/78 69/95/77 76/107/88 77/105/86
f 81/108/89 88/110/90 114/26/2 74/91/74
f 76/107/88 75/93/76 82/92/75 83/111/91
f 81/108/89 80/104/85 87/112/92 88/110/90
f 79/103/84 78/109/87 85/113/93 86/114/94
f 77/105/86 76/107/88 83/111/91 84/115/95
f 80/104/85 79/103/84 86/114/94 87/112/92
f 78/106/87 77/105/86 84/115/95 85/116/93
f 88/110/90 87/112/92 94/117/96 95/118/97
f 86/114/94 85/113/93 92/119/98 93/120/99
f 84/115/95 83/111/91 90/121/100 91/122/101
f 95/118/97 102/123/102 114/26/2 88/110/90
f 110/27/1 111/14/8 103/124/103 96/101/82
f 87/112/92 86/114/94 93/120/99 94/117/96
f 85/116/93 84/115/95 91/122/101 92/125/98
f 83/111/91 82/92/75 89/102/83 90/121/100
f 94/117/96 93/120/99 100/126/104 101/127/105
f 92/125/98 91/122/101 98/128/106 99/129/107
f 90/121/100 89/102/83 96/101/82 97/130/108
f 95/118/97 94/117/96 101/127/105 102/123/102
f 93/120/99 92/119/98 99/131/107 100/126/104
f 91/122/101 90/121/100 97/130/108 98/128/106
f 101/127/105 100/126/104 107/132/109 108/133/110
f 99/129/107 98/128/106 105/134/111 106/135/112
f 97/130/108 96/101/82 103/124/103 104/136/113
f 102/123/102 101/127/105 108/133/110 109/137/114
f 100/126/104 99/131/107 106/138/112 107/132/109
f 98/128/106 97/130/108 104/136/113 105/134/111
f 109/137/114 4/17/11 114/26/2 102/123/102
f 109/137/114 108/133/110 113/18/12 4/17/11
f 107/132/109 106/138/112 112/22/3 3/21/15
f 105/134/111 104/136/113 1/13/7 2/10/4
f 108/133/110 107/132/109 3/21/15 113/18/12
f 106/135/112 105/134/111 2/10/4 112/9/3
f 104/136/113 103/124/103 111/14/8 1/13/7
f 110/27/1 12/30/20 5/15/9 111/14/8
